<svg width="1440" height="1024" viewBox="0 0 1440 1024" fill="none" xmlns="http://www.w3.org/2000/svg">
<g clip-path="url(#clip0_2_23)">
<path d="M733.5 458.904L559.5 616.296L741 661.807L733.5 458.904Z" fill="#352C49" stroke="#352C49" stroke-linejoin="bevel"/>
<path d="M733.5 458.904L567 405.807L559.5 616.296L733.5 458.904Z" fill="#29243E" stroke="#29243E" stroke-linejoin="bevel"/>
<path d="M399 821.096L550.5 813.511L559.5 616.296L399 821.096Z" fill="#382F4B" stroke="#382F4B" stroke-linejoin="bevel"/>
<path d="M559.5 616.296L550.5 813.511L741 661.807L559.5 616.296Z" fill="#2C2640" stroke="#2C2640" stroke-linejoin="bevel"/>
<path d="M550.5 813.511L712.5 864.711L741 661.807L550.5 813.511Z" fill="#29243E" stroke="#29243E" stroke-linejoin="bevel"/>
<path d="M733.5 458.904L681 229.452L567 405.807L733.5 458.904Z" fill="#322A46" stroke="#322A46" stroke-linejoin="bevel"/>
<path d="M934.5 656.119L733.5 458.904L741 661.807L934.5 656.119Z" fill="#3C314E" stroke="#3C314E" stroke-linejoin="bevel"/>
<path d="M934.5 656.119L912 403.911L733.5 458.904L934.5 656.119Z" fill="#3C314E" stroke="#3C314E" stroke-linejoin="bevel"/>
<path d="M733.5 458.904L886.5 242.726L681 229.452L733.5 458.904Z" fill="#3C314E" stroke="#3C314E" stroke-linejoin="bevel"/>
<path d="M918 832.474L934.5 656.119L741 661.807L918 832.474Z" fill="#382F4B" stroke="#382F4B" stroke-linejoin="bevel"/>
<path d="M343.5 413.393L379.5 574.578L567 405.807L343.5 413.393Z" fill="#3C314E" stroke="#3C314E" stroke-linejoin="bevel"/>
<path d="M567 405.807L379.5 574.578L559.5 616.296L567 405.807Z" fill="#382F4B" stroke="#382F4B" stroke-linejoin="bevel"/>
<path d="M379.5 574.578L399 821.096L559.5 616.296L379.5 574.578Z" fill="#25213B" stroke="#25213B" stroke-linejoin="bevel"/>
<path d="M544.5 1024H727.5L712.5 864.711L544.5 1024Z" fill="#3F3351" stroke="#3F3351" stroke-linejoin="bevel"/>
<path d="M712.5 864.711L918 832.474L741 661.807L712.5 864.711Z" fill="#2C2640" stroke="#2C2640" stroke-linejoin="bevel"/>
<path d="M912 403.911L886.5 242.726L733.5 458.904L912 403.911Z" fill="#1F1D36" stroke="#1F1D36" stroke-linejoin="bevel"/>
<path d="M505.5 170.667L343.5 413.393L567 405.807L505.5 170.667Z" fill="#3F3351" stroke="#3F3351" stroke-linejoin="bevel"/>
<path d="M379.5 574.578L219 616.296L399 821.096L379.5 574.578Z" fill="#1F1D36" stroke="#1F1D36" stroke-linejoin="bevel"/>
<path d="M576 0L505.5 170.667L681 229.452L576 0Z" fill="#352C49" stroke="#352C49" stroke-linejoin="bevel"/>
<path d="M681 229.452L505.5 170.667L567 405.807L681 229.452Z" fill="#3C314E" stroke="#3C314E" stroke-linejoin="bevel"/>
<path d="M544.5 1024L712.5 864.711L550.5 813.511L544.5 1024Z" fill="#322A46" stroke="#322A46" stroke-linejoin="bevel"/>
<path d="M712.5 864.711L897 1024L918 832.474L712.5 864.711Z" fill="#382F4B" stroke="#382F4B" stroke-linejoin="bevel"/>
<path d="M399 821.096L544.5 1024L550.5 813.511L399 821.096Z" fill="#25213B" stroke="#25213B" stroke-linejoin="bevel"/>
<path d="M727.5 1024H897L712.5 864.711L727.5 1024Z" fill="#3C314E" stroke="#3C314E" stroke-linejoin="bevel"/>
<path d="M1098 568.889L1074 394.43L912 403.911L1098 568.889Z" fill="#2C2640" stroke="#2C2640" stroke-linejoin="bevel"/>
<path d="M912 403.911L1047 235.141L886.5 242.726L912 403.911Z" fill="#2F2843" stroke="#2F2843" stroke-linejoin="bevel"/>
<path d="M1098 568.889L912 403.911L934.5 656.119L1098 568.889Z" fill="#382F4B" stroke="#382F4B" stroke-linejoin="bevel"/>
<path d="M1098 568.889L934.5 656.119L1068 836.267L1098 568.889Z" fill="#3F3351" stroke="#3F3351" stroke-linejoin="bevel"/>
<path d="M1068 836.267L934.5 656.119L918 832.474L1068 836.267Z" fill="#322A46" stroke="#322A46" stroke-linejoin="bevel"/>
<path d="M343.5 413.393L219 616.296L379.5 574.578L343.5 413.393Z" fill="#2C2640" stroke="#2C2640" stroke-linejoin="bevel"/>
<path d="M399 821.096L321 1024H544.5L399 821.096Z" fill="#3F3351" stroke="#3F3351" stroke-linejoin="bevel"/>
<path d="M505.5 170.667L331.5 183.941L343.5 413.393L505.5 170.667Z" fill="#3C314E" stroke="#3C314E" stroke-linejoin="bevel"/>
<path d="M343.5 413.393L210 432.356L219 616.296L343.5 413.393Z" fill="#2F2843" stroke="#2F2843" stroke-linejoin="bevel"/>
<path d="M756 0H576L681 229.452L756 0Z" fill="#25213B" stroke="#25213B" stroke-linejoin="bevel"/>
<path d="M505.5 170.667L351 0L331.5 183.941L505.5 170.667Z" fill="#29243E" stroke="#29243E" stroke-linejoin="bevel"/>
<path d="M888 0H756L886.5 242.726L888 0Z" fill="#322A46" stroke="#322A46" stroke-linejoin="bevel"/>
<path d="M886.5 242.726L756 0L681 229.452L886.5 242.726Z" fill="#221F39" stroke="#221F39" stroke-linejoin="bevel"/>
<path d="M897 1024L1068 836.267L918 832.474L897 1024Z" fill="#3C314E" stroke="#3C314E" stroke-linejoin="bevel"/>
<path d="M331.5 183.941L210 432.356L343.5 413.393L331.5 183.941Z" fill="#382F4B" stroke="#382F4B" stroke-linejoin="bevel"/>
<path d="M1074 394.43L1047 235.141L912 403.911L1074 394.43Z" fill="#3C314E" stroke="#3C314E" stroke-linejoin="bevel"/>
<path d="M201 843.852L321 1024L399 821.096L201 843.852Z" fill="#1F1D36" stroke="#1F1D36" stroke-linejoin="bevel"/>
<path d="M1047 235.141L888 0L886.5 242.726L1047 235.141Z" fill="#1F1D36" stroke="#1F1D36" stroke-linejoin="bevel"/>
<path d="M0 644.741L201 843.852L219 616.296L0 644.741Z" fill="#1F1D36" stroke="#1F1D36" stroke-linejoin="bevel"/>
<path d="M219 616.296L201 843.852L399 821.096L219 616.296Z" fill="#29243E" stroke="#29243E" stroke-linejoin="bevel"/>
<path d="M576 0H351L505.5 170.667L576 0Z" fill="#2C2640" stroke="#2C2640" stroke-linejoin="bevel"/>
<path d="M331.5 183.941L147 214.281L210 432.356L331.5 183.941Z" fill="#3C314E" stroke="#3C314E" stroke-linejoin="bevel"/>
<path d="M897 1024H1092L1068 836.267L897 1024Z" fill="#2C2640" stroke="#2C2640" stroke-linejoin="bevel"/>
<path d="M1068 836.267L1251 654.222L1098 568.889L1068 836.267Z" fill="#382F4B" stroke="#382F4B" stroke-linejoin="bevel"/>
<path d="M148.5 0L147 214.281L331.5 183.941L148.5 0Z" fill="#352C49" stroke="#352C49" stroke-linejoin="bevel"/>
<path d="M210 432.356L0 644.741L219 616.296L210 432.356Z" fill="#3C314E" stroke="#3C314E" stroke-linejoin="bevel"/>
<path d="M0 1024H199.5L201 843.852L0 1024Z" fill="#322A46" stroke="#322A46" stroke-linejoin="bevel"/>
<path d="M201 843.852L199.5 1024H321L201 843.852Z" fill="#2F2843" stroke="#2F2843" stroke-linejoin="bevel"/>
<path d="M1297.5 777.481L1251 654.222L1068 836.267L1297.5 777.481Z" fill="#29243E" stroke="#29243E" stroke-linejoin="bevel"/>
<path d="M1098 568.889L1239 377.363L1074 394.43L1098 568.889Z" fill="#3C314E" stroke="#3C314E" stroke-linejoin="bevel"/>
<path d="M1074 394.43L1239 377.363L1047 235.141L1074 394.43Z" fill="#25213B" stroke="#25213B" stroke-linejoin="bevel"/>
<path d="M1251 654.222L1239 377.363L1098 568.889L1251 654.222Z" fill="#29243E" stroke="#29243E" stroke-linejoin="bevel"/>
<path d="M1047 235.141L1074 0H888L1047 235.141Z" fill="#25213B" stroke="#25213B" stroke-linejoin="bevel"/>
<path d="M1249.5 180.148L1074 0L1047 235.141L1249.5 180.148Z" fill="#3F3351" stroke="#3F3351" stroke-linejoin="bevel"/>
<path d="M1293 1024L1297.5 777.482L1068 836.267L1293 1024Z" fill="#3C314E" stroke="#3C314E" stroke-linejoin="bevel"/>
<path d="M1251 654.222L1440 639.052L1239 377.363L1251 654.222Z" fill="#3C314E" stroke="#3C314E" stroke-linejoin="bevel"/>
<path d="M1440 360.296L1249.5 180.148L1239 377.363L1440 360.296Z" fill="#1F1D36" stroke="#1F1D36" stroke-linejoin="bevel"/>
<path d="M1239 377.363L1249.5 180.148L1047 235.141L1239 377.363Z" fill="#382F4B" stroke="#382F4B" stroke-linejoin="bevel"/>
<path d="M0 388.741V644.741L210 432.356L0 388.741Z" fill="#2C2640" stroke="#2C2640" stroke-linejoin="bevel"/>
<path d="M147 214.281L0 388.741L210 432.356L147 214.281Z" fill="#2F2843" stroke="#2F2843" stroke-linejoin="bevel"/>
<path d="M351 0H148.5L331.5 183.941L351 0Z" fill="#382F4B" stroke="#382F4B" stroke-linejoin="bevel"/>
<path d="M147 214.281L0 176.356V388.741L147 214.281Z" fill="#2C2640" stroke="#2C2640" stroke-linejoin="bevel"/>
<path d="M0 644.741V836.267L201 843.852L0 644.741Z" fill="#382F4B" stroke="#382F4B" stroke-linejoin="bevel"/>
<path d="M1092 1024H1293L1068 836.267L1092 1024Z" fill="#29243E" stroke="#29243E" stroke-linejoin="bevel"/>
<path d="M148.5 0L0 176.356L147 214.281L148.5 0Z" fill="#221F39" stroke="#221F39" stroke-linejoin="bevel"/>
<path d="M1440 161.185L1260 0L1249.5 180.148L1440 161.185Z" fill="#322A46" stroke="#322A46" stroke-linejoin="bevel"/>
<path d="M1249.5 180.148L1260 0H1074L1249.5 180.148Z" fill="#3F3351" stroke="#3F3351" stroke-linejoin="bevel"/>
<path d="M0 836.267V1024L201 843.852L0 836.267Z" fill="#322A46" stroke="#322A46" stroke-linejoin="bevel"/>
<path d="M1440 855.23V639.052L1297.5 777.481L1440 855.23Z" fill="#382F4B" stroke="#382F4B" stroke-linejoin="bevel"/>
<path d="M1297.5 777.482L1440 639.052L1251 654.222L1297.5 777.482Z" fill="#221F39" stroke="#221F39" stroke-linejoin="bevel"/>
<path d="M1440 639.052V360.296L1239 377.363L1440 639.052Z" fill="#352C49" stroke="#352C49" stroke-linejoin="bevel"/>
<path d="M148.5 0H0V176.356L148.5 0Z" fill="#29243E" stroke="#29243E" stroke-linejoin="bevel"/>
<path d="M1293 1024L1440 855.23L1297.5 777.482L1293 1024Z" fill="#25213B" stroke="#25213B" stroke-linejoin="bevel"/>
<path d="M1440 360.296V161.185L1249.5 180.148L1440 360.296Z" fill="#1F1D36" stroke="#1F1D36" stroke-linejoin="bevel"/>
<path d="M1293 1024H1440V855.23L1293 1024Z" fill="#3C314E" stroke="#3C314E" stroke-linejoin="bevel"/>
<path d="M1440 161.185V0H1260L1440 161.185Z" fill="#25213B" stroke="#25213B" stroke-linejoin="bevel"/>
</g>
<defs>
<clipPath id="clip0_2_23">
<rect width="1440" height="1024" fill="white"/>
</clipPath>
</defs>
</svg>
